<?xml version="1.0" encoding="utf-8"?>
<svg viewBox="0 0 500 250" width="500" height="250" xmlns="http://www.w3.org/2000/svg">
  <path d="M 45.997 152.282 L 45.997 152.282 L 45.997 152.282 C 42.697 159.482 40.674 166.155 39.927 172.302 L 39.927 172.302 L 39.927 172.302 C 39.174 178.455 40.297 183.332 43.297 186.932 L 43.297 186.932 L 43.297 186.932 C 45.397 189.632 49.597 190.755 55.897 190.302 L 55.897 190.302 L 55.897 190.302 C 62.197 189.855 68.347 188.732 74.347 186.932 L 74.347 186.932 L 74.347 186.932 C 81.547 184.232 89.047 180.855 96.847 176.802 L 96.847 176.802 L 96.847 176.802 C 104.647 172.755 112.447 168.255 120.247 163.302 L 120.247 163.302 L 120.247 163.302 C 128.047 158.355 135.847 153.182 143.647 147.782 L 143.647 147.782 L 143.647 147.782 C 151.447 142.382 158.797 137.132 165.697 132.032 L 165.697 132.032 L 169.747 150.032 L 169.747 150.032 C 162.247 155.432 152.947 162.182 141.847 170.282 L 141.847 170.282 L 141.847 170.282 C 130.747 178.382 119.047 185.955 106.747 193.002 L 106.747 193.002 L 106.747 193.002 C 94.447 200.055 82.074 205.455 69.627 209.202 L 69.627 209.202 L 69.627 209.202 C 57.174 212.955 45.997 213.032 36.097 209.432 L 36.097 209.432 L 36.097 209.432 C 26.497 206.132 20.947 199.082 19.447 188.282 L 19.447 188.282 L 19.447 188.282 C 17.947 177.482 19.297 165.182 23.497 151.382 L 23.497 151.382 L 23.497 151.382 C 26.197 142.982 30.77 132.932 37.217 121.232 L 37.217 121.232 L 37.217 121.232 C 43.67 109.532 51.32 98.209 60.167 87.262 L 60.167 87.262 L 60.167 87.262 C 69.02 76.309 78.924 66.632 89.877 58.232 L 89.877 58.232 L 89.877 58.232 C 100.824 49.832 112.147 44.432 123.847 42.032 L 123.847 42.032 L 123.847 42.032 C 131.047 40.832 136.974 41.505 141.627 44.052 L 141.627 44.052 L 141.627 44.052 C 146.274 46.605 149.497 50.132 151.297 54.632 L 151.297 54.632 L 151.297 54.632 C 153.097 59.132 153.547 64.159 152.647 69.712 L 152.647 69.712 L 152.647 69.712 C 151.747 75.259 149.497 80.282 145.897 84.782 L 145.897 84.782 L 145.897 84.782 C 141.397 90.182 135.174 96.032 127.227 102.332 L 127.227 102.332 L 127.227 102.332 C 119.274 108.632 110.647 114.859 101.347 121.012 L 101.347 121.012 L 101.347 121.012 C 92.047 127.159 82.524 132.932 72.777 138.332 L 72.777 138.332 L 72.777 138.332 C 63.024 143.732 54.097 148.382 45.997 152.282 M 70.747 109.082 L 70.747 109.082 L 70.747 109.082 C 69.247 111.482 67.747 113.732 66.247 115.832 L 66.247 115.832 L 66.247 115.832 C 64.747 117.932 63.247 120.182 61.747 122.582 L 61.747 122.582 L 61.747 122.582 C 68.647 119.282 75.92 115.455 83.567 111.102 L 83.567 111.102 L 83.567 111.102 C 91.22 106.755 98.947 101.582 106.747 95.582 L 106.747 95.582 L 106.747 95.582 C 113.947 89.882 119.947 84.332 124.747 78.932 L 124.747 78.932 L 124.747 78.932 C 129.547 73.532 132.097 68.282 132.397 63.182 L 132.397 63.182 L 132.397 63.182 C 132.697 60.782 131.274 59.505 128.127 59.352 L 128.127 59.352 L 128.127 59.352 C 124.974 59.205 120.547 60.782 114.847 64.082 L 114.847 64.082 L 114.847 64.082 C 111.247 66.182 107.347 69.032 103.147 72.632 L 103.147 72.632 L 103.147 72.632 C 94.447 80.732 87.847 87.405 83.347 92.652 L 83.347 92.652 L 83.347 92.652 C 78.847 97.905 74.647 103.382 70.747 109.082 Z M 428.046 78.932 L 428.046 78.932 L 428.046 78.932 C 427.446 79.532 423.623 82.982 416.576 89.282 L 416.576 89.282 L 416.576 89.282 C 409.523 95.582 400.823 103.455 390.476 112.902 L 390.476 112.902 L 390.476 112.902 C 380.123 122.355 368.946 132.559 356.946 143.512 L 356.946 143.512 L 356.946 143.512 C 344.946 154.459 333.773 164.655 323.426 174.102 L 323.426 174.102 L 323.426 174.102 C 313.073 183.555 304.146 191.509 296.646 197.962 L 296.646 197.962 L 296.646 197.962 C 289.146 204.409 284.946 207.932 284.046 208.532 L 284.046 208.532 L 284.046 208.532 C 281.346 210.332 278.723 210.932 276.176 210.332 L 276.176 210.332 L 276.176 210.332 C 273.623 209.732 271.446 208.532 269.646 206.732 L 269.646 206.732 L 269.646 206.732 C 267.846 204.932 266.719 202.605 266.266 199.752 L 266.266 199.752 L 266.266 199.752 C 265.819 196.905 266.496 194.132 268.296 191.432 L 268.296 191.432 L 268.296 191.432 C 275.796 182.132 282.923 172.459 289.676 162.412 L 289.676 162.412 L 289.676 162.412 C 296.423 152.359 302.796 142.605 308.796 133.152 L 308.796 133.152 L 308.796 133.152 C 314.796 123.705 320.423 114.855 325.676 106.602 L 325.676 106.602 L 325.676 106.602 C 330.923 98.355 335.796 91.382 340.296 85.682 L 340.296 85.682 L 340.296 85.682 C 343.596 81.782 345.173 78.932 345.026 77.132 L 345.026 77.132 L 345.026 77.132 C 344.873 75.332 343.446 75.482 340.746 77.582 L 340.746 77.582 L 340.746 77.582 C 330.246 85.982 318.623 96.105 305.876 107.952 L 305.876 107.952 L 305.876 107.952 C 293.123 119.805 280.073 132.182 266.726 145.082 L 266.726 145.082 L 266.726 145.082 C 253.373 157.982 240.023 170.582 226.676 182.882 L 226.676 182.882 L 226.676 182.882 C 213.323 195.182 200.646 205.982 188.646 215.282 L 188.646 215.282 L 188.646 215.282 C 185.946 216.782 183.096 216.632 180.096 214.832 L 180.096 214.832 L 180.096 214.832 C 177.096 213.032 175.596 210.332 175.596 206.732 L 175.596 206.732 L 175.596 206.732 C 179.196 198.632 183.396 190.009 188.196 180.862 L 188.196 180.862 L 188.196 180.862 C 192.996 171.709 198.023 162.405 203.276 152.952 L 203.276 152.952 L 203.276 152.952 C 208.523 143.505 213.623 134.282 218.576 125.282 L 218.576 125.282 L 218.576 125.282 C 223.523 116.282 228.096 107.732 232.296 99.632 L 232.296 99.632 L 232.296 99.632 C 228.996 102.632 226.069 105.405 223.516 107.952 L 223.516 107.952 L 223.516 107.952 C 220.969 110.505 217.446 113.732 212.946 117.632 L 212.946 117.632 L 212.946 117.632 C 208.446 121.532 202.296 126.555 194.496 132.702 L 194.496 132.702 L 194.496 132.702 C 186.696 138.855 175.746 147.032 161.646 157.232 L 161.646 157.232 L 157.146 137.882 L 157.146 137.882 C 183.246 119.282 203.946 101.882 219.246 85.682 L 219.246 85.682 L 219.246 85.682 C 234.546 69.482 246.846 56.132 256.146 45.632 L 256.146 45.632 L 256.146 45.632 C 259.446 41.432 262.896 38.355 266.496 36.402 L 266.496 36.402 L 266.496 36.402 C 270.096 34.455 273.323 33.559 276.176 33.712 L 276.176 33.712 L 276.176 33.712 C 279.023 33.859 281.196 34.905 282.696 36.852 L 282.696 36.852 L 282.696 36.852 C 284.196 38.805 284.346 41.432 283.146 44.732 L 283.146 44.732 L 283.146 44.732 C 282.246 47.432 281.123 50.282 279.776 53.282 L 279.776 53.282 L 279.776 53.282 C 278.423 56.282 276.846 59.282 275.046 62.282 L 275.046 62.282 L 275.046 62.282 C 269.946 71.282 265.519 79.532 261.766 87.032 L 261.766 87.032 L 261.766 87.032 C 258.019 94.532 254.346 101.732 250.746 108.632 L 250.746 108.632 L 250.746 108.632 C 247.146 115.532 243.396 122.732 239.496 130.232 L 239.496 130.232 L 239.496 130.232 C 235.596 137.732 231.246 145.982 226.446 154.982 L 226.446 154.982 L 226.446 154.982 C 233.046 148.382 241.373 140.282 251.426 130.682 L 251.426 130.682 L 251.426 130.682 C 261.473 121.082 271.896 111.332 282.696 101.432 L 282.696 101.432 L 282.696 101.432 C 293.496 91.532 303.996 82.305 314.196 73.752 L 314.196 73.752 L 314.196 73.752 C 324.396 65.205 332.796 58.832 339.396 54.632 L 339.396 54.632 L 339.396 54.632 C 344.496 51.632 349.523 49.605 354.476 48.552 L 354.476 48.552 L 354.476 48.552 C 359.423 47.505 363.546 47.655 366.846 49.002 L 366.846 49.002 L 366.846 49.002 C 370.146 50.355 372.323 53.205 373.376 57.552 L 373.376 57.552 L 373.376 57.552 C 374.423 61.905 373.596 67.832 370.896 75.332 L 370.896 75.332 L 370.896 75.332 C 367.296 82.832 363.769 89.282 360.316 94.682 L 360.316 94.682 L 360.316 94.682 C 356.869 100.082 353.346 105.255 349.746 110.202 L 349.746 110.202 L 349.746 110.202 C 346.146 115.155 342.473 120.259 338.726 125.512 L 338.726 125.512 L 338.726 125.512 C 334.973 130.759 330.846 136.832 326.346 143.732 L 326.346 143.732 L 326.346 143.732 C 333.846 137.732 342.023 130.532 350.876 122.132 L 350.876 122.132 L 350.876 122.132 C 359.723 113.732 368.646 105.255 377.646 96.702 L 377.646 96.702 L 377.646 96.702 C 386.646 88.155 395.346 80.205 403.746 72.852 L 403.746 72.852 L 403.746 72.852 C 412.146 65.505 419.796 59.732 426.696 55.532 L 426.696 55.532 L 426.696 55.532 C 431.796 52.532 436.823 50.509 441.776 49.462 L 441.776 49.462 L 441.776 49.462 C 446.723 48.409 450.846 48.555 454.146 49.902 L 454.146 49.902 L 454.146 49.902 C 457.446 51.255 459.619 54.109 460.666 58.462 L 460.666 58.462 L 460.666 58.462 C 461.719 62.809 460.896 68.882 458.196 76.682 L 458.196 76.682 L 458.196 76.682 C 453.696 85.382 447.996 94.532 441.096 104.132 L 441.096 104.132 L 441.096 104.132 C 434.196 113.732 427.373 123.255 420.626 132.702 L 420.626 132.702 L 420.626 132.702 C 413.873 142.155 407.796 151.155 402.396 159.702 L 402.396 159.702 L 402.396 159.702 C 396.996 168.255 393.846 175.682 392.946 181.982 L 392.946 181.982 L 392.946 181.982 C 392.346 185.282 394.446 186.182 399.246 184.682 L 399.246 184.682 L 399.246 184.682 C 399.846 184.682 401.873 183.632 405.326 181.532 L 405.326 181.532 L 405.326 181.532 C 408.773 179.432 413.046 176.732 418.146 173.432 L 418.146 173.432 L 418.146 173.432 C 423.246 170.132 428.796 166.459 434.796 162.412 L 434.796 162.412 L 434.796 162.412 C 440.796 158.359 446.646 154.382 452.346 150.482 L 452.346 150.482 L 452.346 150.482 C 458.046 146.582 463.296 143.055 468.096 139.902 L 468.096 139.902 L 468.096 139.902 C 472.896 136.755 476.496 134.282 478.896 132.482 L 478.896 132.482 L 481.146 152.282 L 481.146 152.282 C 476.646 155.582 470.569 160.082 462.916 165.782 L 462.916 165.782 L 462.916 165.782 C 455.269 171.482 447.246 177.259 438.846 183.112 L 438.846 183.112 L 438.846 183.112 C 430.446 188.959 422.196 194.355 414.096 199.302 L 414.096 199.302 L 414.096 199.302 C 405.996 204.255 399.246 207.632 393.846 209.432 L 393.846 209.432 L 393.846 209.432 C 389.346 210.632 384.323 210.482 378.776 208.982 L 378.776 208.982 L 378.776 208.982 C 373.223 207.482 369.246 204.332 366.846 199.532 L 366.846 199.532 L 366.846 199.532 C 365.946 191.132 367.746 181.682 372.246 171.182 L 372.246 171.182 L 372.246 171.182 C 376.746 160.682 382.373 150.182 389.126 139.682 L 389.126 139.682 L 389.126 139.682 C 395.873 129.182 402.923 119.282 410.276 109.982 L 410.276 109.982 L 410.276 109.982 C 417.623 100.682 423.546 92.882 428.046 86.582 L 428.046 86.582 L 428.046 86.582 C 430.746 82.682 432.096 79.905 432.096 78.252 L 432.096 78.252 L 432.096 78.252 C 432.096 76.605 430.746 76.832 428.046 78.932 Z" style="fill: rgb(255, 255, 255); white-space: pre;" transform="matrix(1, 0, 0, 1, 0, 0)"/>
</svg>
