<?xml version="1.0" encoding="UTF-8"?>
<svg width="450px" height="225px" viewBox="0 0 450 225" version="1.1" xmlns="http://www.w3.org/2000/svg" xmlns:xlink="http://www.w3.org/1999/xlink">
    <title>Logo</title>
    <g id="Logo" stroke="none" stroke-width="1" fill="none" fill-rule="evenodd">
        <path d="M71.0263672,200.011719 C77.1494141,200.197266 83.1796875,199.918945 89.1171875,199.176758 C95.0546875,198.43457 100.157227,197.599609 104.424805,196.671875 C105.90918,196.671875 107.208008,196.903809 108.321289,197.367676 C109.43457,197.831543 110.826172,197.87793 112.496094,197.506836 C119.361328,196.208008 125.623535,195.094727 131.282715,194.166992 C136.941895,193.239258 142.09082,191.94043 146.729492,190.270508 C151.368164,188.600586 155.496582,186.14209 159.114746,182.89502 C162.73291,179.647949 165.933594,174.962891 168.716797,168.839844 C167.603516,169.025391 166.814941,168.793457 166.351074,168.144043 C165.887207,167.494629 165.5625,166.706055 165.376953,165.77832 C165.191406,164.850586 164.959473,163.876465 164.681152,162.855957 C164.402832,161.835449 163.892578,160.954102 163.150391,160.211914 C161.480469,160.397461 160.088867,160.026367 158.975586,159.098633 C157.862305,158.170898 156.79541,157.104004 155.774902,155.897949 C154.754395,154.691895 153.6875,153.393066 152.574219,152.001465 C151.460938,150.609863 150.162109,149.635742 148.677734,149.079102 C144.410156,150.563477 139.725098,151.630371 134.622559,152.279785 C129.52002,152.929199 125.113281,154.274414 121.402344,156.31543 C115.464844,156.129883 110.547852,156.269043 106.651367,156.73291 C102.754883,157.196777 98.9511719,157.660645 95.2402344,158.124512 C91.5292969,158.588379 87.5864258,158.913086 83.4116211,159.098633 C79.2368164,159.28418 73.9951172,158.913086 67.6865234,157.985352 C69.5419922,152.975586 71.6757812,148.244141 74.0878906,143.791016 C76.5,139.337891 79.1904297,135.163086 82.1591797,131.266602 C84.3857422,132.008789 86.9370117,132.333496 89.8129883,132.240723 C92.6889648,132.147949 95.1474609,132.56543 97.1884766,133.493164 C98.6728516,132.56543 100.760254,132.287109 103.450684,132.658203 C106.141113,133.029297 108.228516,132.750977 109.712891,131.823242 C110.455078,132.379883 111.058105,132.658203 111.521973,132.658203 L111.521973,132.658203 L113.609375,132.658203 C118.0625,132.84375 122.098145,132.42627 125.716309,131.405762 C129.334473,130.385254 132.76709,129.040039 136.01416,127.370117 C139.26123,125.700195 142.369141,123.79834 145.337891,121.664551 C148.306641,119.530762 151.275391,117.443359 154.244141,115.402344 C154.986328,113.546875 155.218262,111.737793 154.939941,109.975098 C154.661621,108.212402 154.151367,106.588867 153.40918,105.104492 C151.553711,105.290039 149.930176,104.965332 148.538574,104.130371 C147.146973,103.29541 145.801758,102.228516 144.50293,100.929688 C143.204102,99.6308594 141.905273,98.2856445 140.606445,96.894043 C139.307617,95.5024414 138.008789,94.3427734 136.709961,93.4150391 C136.524414,92.6728516 136.617188,92.1625977 136.988281,91.8842773 C137.359375,91.605957 137.452148,91.0029297 137.266602,90.0751953 C129.65918,90.2607422 121.912598,90.7246094 114.026855,91.4667969 C106.141113,92.2089844 98.9511719,92.3017578 92.4570312,91.7451172 C91.9003906,90.6318359 91.668457,89.1938477 91.7612305,87.4311523 C91.8540039,85.668457 91.5292969,83.9521484 90.7871094,82.2822266 C92.4570312,81.7255859 94.1269531,81.215332 95.796875,80.7514648 C97.4667969,80.2875977 98.8583984,79.4990234 99.9716797,78.3857422 C103.682617,78.7568359 106.512207,78.4785156 108.460449,77.5507812 C110.408691,76.6230469 112.588867,76.6230469 115.000977,77.5507812 C121.124023,73.8398438 127.293457,71.4277344 133.509277,70.3144531 C139.725098,69.2011719 145.801758,68.1342773 151.739258,67.1137695 C157.676758,66.0932617 163.196777,64.4233398 168.299316,62.1040039 C173.401855,59.784668 177.901367,55.4707031 181.797852,49.1621094 C181.426758,47.8632812 181.241211,46.8891602 181.241211,46.2397461 C181.241211,45.590332 181.287598,44.9873047 181.380371,44.4306641 C181.473145,43.8740234 181.565918,43.2709961 181.658691,42.621582 C181.751465,41.972168 181.705078,40.9980469 181.519531,39.6992188 C177.994141,38.2148438 174.793457,36.4057617 171.91748,34.2719727 C169.041504,32.1381836 166.675781,29.4941406 164.820312,26.3398438 C165.005859,28.0097656 164.588379,28.5200195 163.567871,27.8706055 C162.547363,27.2211914 161.666016,27.7314453 160.923828,29.4013672 C159.439453,29.4013672 157.862305,28.5664062 156.192383,26.8964844 C148.399414,28.3808594 141.441406,29.4941406 135.318359,30.2363281 C129.195312,30.9785156 123.304199,31.7670898 117.64502,32.6020508 C111.98584,33.4370117 106.233887,34.5039062 100.38916,35.8027344 C94.5444336,37.1015625 87.9111328,38.9570312 80.4892578,41.3691406 C76.4072266,42.296875 72.5107422,43.1318359 68.7998047,43.8740234 C65.0888672,44.6162109 61.65625,45.5439453 58.5019531,46.6572266 C55.3476562,47.7705078 52.425293,49.2084961 49.7348633,50.9711914 C47.0444336,52.7338867 44.7714844,55.0068359 42.9160156,57.7900391 C43.84375,60.9443359 44.4931641,64.0522461 44.8642578,67.1137695 C45.2353516,70.175293 45.6992188,73.144043 46.2558594,76.0200195 C46.8125,78.8959961 47.6938477,81.7719727 48.8999023,84.6479492 C50.105957,87.5239258 52.0078125,90.1679688 54.6054688,92.5800781 C53.3066406,96.1054688 51.9614258,99.3061523 50.5698242,102.182129 C49.1782227,105.058105 47.7866211,107.887695 46.3950195,110.670898 C45.003418,113.454102 43.6582031,116.330078 42.359375,119.298828 C41.0605469,122.267578 39.8544922,125.421875 38.7412109,128.761719 C37.4423828,128.576172 36.7001953,128.900879 36.5146484,129.73584 C36.3291016,130.570801 35.7724609,131.081055 34.8447266,131.266602 C35.4013672,133.864258 34.7983398,136.276367 33.0356445,138.50293 C31.2729492,140.729492 30.1132812,143.234375 29.5566406,146.017578 C29,148.615234 28.8608398,151.491211 29.1391602,154.645508 C29.4174805,157.799805 29.8349609,161.000488 30.3916016,164.247559 C30.9482422,167.494629 31.5048828,170.602539 32.0615234,173.571289 C32.6181641,176.540039 32.9892578,179.230469 33.1748047,181.642578 C35.2158203,182.570312 36.4682617,183.915527 36.9321289,185.678223 C37.3959961,187.440918 38.3701172,188.97168 39.8544922,190.270508 C43.3798828,193.795898 47.9257812,196.254395 53.4921875,197.645996 C59.0585938,199.037598 64.9033203,199.826172 71.0263672,200.011719 Z M210.992188,201.40332 C214.146484,201.40332 216.651367,200.429199 218.506836,198.480957 C220.362305,196.532715 222.867188,192.311523 226.021484,185.817383 C226.392578,184.704102 226.578125,183.498047 226.578125,182.199219 C226.763672,181.271484 226.902832,180.34375 226.995605,179.416016 C227.088379,178.488281 227.320312,177.560547 227.691406,176.632812 C228.248047,175.705078 228.943848,174.82373 229.778809,173.98877 C230.61377,173.153809 231.402344,172.272461 232.144531,171.344727 C233.443359,170.416992 234.27832,169.118164 234.649414,167.448242 C233.907227,166.149414 233.72168,164.757812 234.092773,163.273438 C235.020508,160.490234 236.412109,157.985352 238.267578,155.758789 C240.123047,153.532227 241.885742,151.583984 243.555664,149.914062 C243.370117,147.6875 243.694824,145.043457 244.529785,141.981934 C245.364746,138.92041 246.338867,135.905273 247.452148,132.936523 C248.56543,129.967773 249.678711,127.32373 250.791992,125.004395 C251.905273,122.685059 252.740234,121.154297 253.296875,120.412109 L253.296875,120.412109 L255.523438,116.793945 L257.75,120.96875 C265.542969,136.740234 277.232422,144.625977 292.818359,144.625977 C298.941406,144.625977 305.203613,143.605469 311.60498,141.564453 C318.006348,139.523438 324.314941,136.879395 330.530762,133.632324 C336.746582,130.385254 342.730469,126.859863 348.482422,123.056152 C354.234375,119.252441 359.522461,115.587891 364.34668,112.0625 C364.717773,110.949219 365.228027,110.299805 365.877441,110.114258 C366.526855,109.928711 367.222656,109.835938 367.964844,109.835938 L367.964844,109.835938 L370.469727,112.619141 C370.469727,114.289062 370.005859,115.402344 369.078125,115.958984 C363.140625,136.554688 360.311035,153.532227 360.589355,166.891602 C360.867676,180.250977 364.625,189.621094 371.861328,195.001953 C373.902344,195.001953 375.711426,194.630859 377.288574,193.888672 C378.865723,193.146484 380.582031,192.311523 382.4375,191.383789 C383.921875,190.641602 385.313477,189.945801 386.612305,189.296387 C387.911133,188.646973 389.395508,188.043945 391.06543,187.487305 C391.436523,186.55957 391.854004,185.631836 392.317871,184.704102 C392.781738,183.776367 393.199219,182.848633 393.570312,181.920898 C397.28125,173.385742 400.853027,164.247559 404.285645,154.506348 C407.718262,144.765137 409.063477,133.957031 408.321289,122.082031 C409.43457,119.669922 410.315918,117.443359 410.965332,115.402344 C411.614746,113.361328 412.125,111.181152 412.496094,108.861816 C412.867188,106.54248 413.006348,104.037598 412.913574,101.347168 C412.820801,98.6567383 412.681641,94.8994141 412.496094,90.0751953 C413.609375,88.2197266 414.583496,85.7148438 415.418457,82.5605469 C416.253418,79.40625 416.485352,76.5302734 416.114258,73.9326172 L416.114258,73.9326172 L415.279297,68.6445312 L420.567383,69.2011719 C420.196289,68.4589844 419.917969,67.8095703 419.732422,67.2529297 C419.546875,66.6962891 419.361328,66.1396484 419.175781,65.5830078 C418.433594,63.9130859 417.830566,62.2895508 417.366699,60.7124023 C416.902832,59.1352539 416.856445,57.4189453 417.227539,55.5634766 C413.887695,53.3369141 411.568359,50.0898438 410.269531,45.8222656 C409.527344,44.3378906 407.764648,42.8535156 404.981445,41.3691406 C404.610352,41.1835938 404.332031,40.9980469 404.146484,40.8125 C403.960938,40.6269531 403.49707,40.2558594 402.754883,39.6992188 C401.270508,38.4003906 400.52832,36.8232422 400.52832,34.9677734 C400.157227,34.7822266 399.739746,34.5966797 399.275879,34.4111328 C398.812012,34.2255859 398.301758,33.9472656 397.745117,33.5761719 C395.704102,32.6484375 393.570312,31.7207031 391.34375,30.7929688 C389.117188,29.8652344 386.983398,29.4013672 384.942383,29.4013672 C382.901367,29.4013672 380.953125,29.9580078 379.097656,31.0712891 C375.943359,38.8642578 371.768555,45.3583984 366.573242,50.5537109 C361.37793,55.7490234 355.99707,60.5732422 350.430664,65.0263672 C347.461914,67.4384766 344.632324,69.8505859 341.941895,72.2626953 C339.251465,74.6748047 336.236328,77.4580078 332.896484,80.6123047 C331.412109,80.7978516 329.927734,81.3081055 328.443359,82.1430664 C326.958984,82.9780273 325.474609,83.9521484 323.990234,85.0654297 C321.763672,86.5498047 319.397949,87.987793 316.893066,89.3793945 C314.388184,90.7709961 311.651367,91.4667969 308.682617,91.4667969 C306.084961,91.4667969 303.116211,90.1679688 299.776367,87.5703125 C299.405273,85.9003906 299.219727,84.3696289 299.219727,82.9780273 C299.219727,81.5864258 299.3125,80.2412109 299.498047,78.9423828 C300.054688,75.9736328 299.869141,73.6542969 298.941406,71.984375 L298.941406,71.984375 L298.663086,69.2011719 C299.59082,66.7890625 300.008301,64.4697266 299.915527,62.2431641 C299.822754,60.0166016 299.358887,57.8364258 298.523926,55.7026367 C297.688965,53.5688477 296.575684,51.4350586 295.184082,49.3012695 C293.79248,47.1674805 292.354492,44.9873047 290.870117,42.7607422 C289.756836,40.7197266 288.550781,38.9570312 287.251953,37.4726562 C285.582031,37.1015625 284.05127,36.684082 282.659668,36.2202148 C281.268066,35.7563477 279.551758,35.2460938 277.510742,34.6894531 C276.026367,34.6894531 274.913086,33.7617188 274.170898,31.90625 L274.170898,31.90625 L273.614258,28.8447266 C271.758789,26.6181641 268.790039,24.6699219 264.708008,23 C258.770508,25.2265625 254.270996,28.2416992 251.209473,32.0454102 C248.147949,35.8491211 244.947266,40.6269531 241.607422,46.3789062 C240.494141,48.234375 239.334473,50.1362305 238.128418,52.0844727 C236.922363,54.0327148 235.577148,56.1201172 234.092773,58.3466797 C232.237305,61.1298828 229.964355,65.2119141 227.273926,70.5927734 C224.583496,75.9736328 221.753906,81.8647461 218.785156,88.2661133 C215.816406,94.6674805 212.847656,101.254395 209.878906,108.026855 C206.910156,114.799316 204.266113,120.96875 201.946777,126.535156 C199.627441,132.101562 197.725586,136.647461 196.241211,140.172852 C194.756836,143.698242 194.014648,145.553711 194.014648,145.739258 C192.344727,149.635742 191.463379,154.228027 191.370605,159.516113 C191.277832,164.804199 191.741699,170.045898 192.762207,175.241211 C193.782715,180.436523 195.26709,185.307129 197.215332,189.853027 C199.163574,194.398926 201.34375,197.970703 203.755859,200.568359 C207.095703,201.125 209.507812,201.40332 210.992188,201.40332 Z" id="em" fill="#FFFFFF" fill-rule="nonzero"></path>
    </g>
</svg>
